# xmcd
#
# Track frame offsets:
# 150
# 17085
# 33872
# 50955
# 68342
# 83535
# 100180
# 118350
# 132835
# 155265
#
# Disc length: 2289 seconds
#
# Revision: 1
# Processed by: cddbd v1.5.1PL0 Copyright (c) Steve Scherf et al.
# Submitted via: CedeCatalogueitor 2.6.0.6 http://personales.ya.com/cdcatalogueitor
#
DISCID=7808ef0a
DTITLE=Sheena Easton - Todo Me Recuerda Ati
DYEAR=1989
DGENRE=
TTITLE0=Telefono
TTITLE1=Todo Me Recuerda A Ti
TTITLE2=Amame
TTITLE3=La  Noche Y Tu
TTITLE4=El Primer Tren
TTITLE5=Una Vez En La Vida
TTITLE6=Mi Corazon Vuela
TTITLE7=Me Gustas Tal Como Eres
TTITLE8=No Puedes Dejarme Asi
TTITLE9=Brindo Por Un Amor
EXTD=
EXTT0=
EXTT1=
EXTT2=
EXTT3=
EXTT4=
EXTT5=
EXTT6=
EXTT7=
EXTT8=
EXTT9=
PLAYORDER=
